<mxfile host="app.diagrams.net" modified="2024-03-11T12:16:38.892Z" agent="Mozilla/5.0 (Windows NT 10.0; Win64; x64) AppleWebKit/537.36 (KHTML, like Gecko) Chrome/122.0.0.0 Safari/537.36" etag="jXk1mX9Kw3hfclUmQDRE" version="24.0.1" type="device" pages="2">
  <diagram id="kpXLYTf33OPzrNBLvlCM" name="Page-1">
    <mxGraphModel dx="3050" dy="1365" grid="1" gridSize="10" guides="1" tooltips="1" connect="1" arrows="1" fold="1" page="0" pageScale="1" pageWidth="1100" pageHeight="850" background="#FFFFFF" math="0" shadow="0">
      <root>
        <mxCell id="0" />
        <mxCell id="1" parent="0" />
        <mxCell id="ZxVhN1SiWwYsEF7UFf1V-4" style="edgeStyle=orthogonalEdgeStyle;rounded=0;orthogonalLoop=1;jettySize=auto;html=1;exitX=0.5;exitY=1;exitDx=0;exitDy=0;entryX=0.5;entryY=0;entryDx=0;entryDy=0;" parent="1" source="ZxVhN1SiWwYsEF7UFf1V-1" target="ZxVhN1SiWwYsEF7UFf1V-2" edge="1">
          <mxGeometry relative="1" as="geometry" />
        </mxCell>
        <mxCell id="ZxVhN1SiWwYsEF7UFf1V-1" value="Start" style="ellipse;whiteSpace=wrap;html=1;" parent="1" vertex="1">
          <mxGeometry x="10" y="-440" width="120" height="80" as="geometry" />
        </mxCell>
        <mxCell id="ZxVhN1SiWwYsEF7UFf1V-5" style="edgeStyle=orthogonalEdgeStyle;rounded=0;orthogonalLoop=1;jettySize=auto;html=1;exitX=0.5;exitY=1;exitDx=0;exitDy=0;entryX=0.5;entryY=0;entryDx=0;entryDy=0;" parent="1" source="ZxVhN1SiWwYsEF7UFf1V-2" target="ZxVhN1SiWwYsEF7UFf1V-3" edge="1">
          <mxGeometry relative="1" as="geometry" />
        </mxCell>
        <mxCell id="ZxVhN1SiWwYsEF7UFf1V-2" value="Masukkan Nama" style="shape=parallelogram;perimeter=parallelogramPerimeter;whiteSpace=wrap;html=1;fixedSize=1;" parent="1" vertex="1">
          <mxGeometry x="10" y="-280" width="120" height="60" as="geometry" />
        </mxCell>
        <mxCell id="ZxVhN1SiWwYsEF7UFf1V-7" style="edgeStyle=orthogonalEdgeStyle;rounded=0;orthogonalLoop=1;jettySize=auto;html=1;exitX=0.5;exitY=1;exitDx=0;exitDy=0;entryX=0.5;entryY=0;entryDx=0;entryDy=0;" parent="1" source="ZxVhN1SiWwYsEF7UFf1V-3" target="ZxVhN1SiWwYsEF7UFf1V-6" edge="1">
          <mxGeometry relative="1" as="geometry" />
        </mxCell>
        <mxCell id="ZxVhN1SiWwYsEF7UFf1V-3" value="masukkan NIM" style="shape=parallelogram;perimeter=parallelogramPerimeter;whiteSpace=wrap;html=1;fixedSize=1;" parent="1" vertex="1">
          <mxGeometry x="10" y="-140" width="120" height="60" as="geometry" />
        </mxCell>
        <mxCell id="ZxVhN1SiWwYsEF7UFf1V-9" style="edgeStyle=orthogonalEdgeStyle;rounded=0;orthogonalLoop=1;jettySize=auto;html=1;exitX=0.5;exitY=1;exitDx=0;exitDy=0;entryX=0.5;entryY=0;entryDx=0;entryDy=0;" parent="1" source="ZxVhN1SiWwYsEF7UFf1V-6" target="ZxVhN1SiWwYsEF7UFf1V-8" edge="1">
          <mxGeometry relative="1" as="geometry" />
        </mxCell>
        <mxCell id="ZxVhN1SiWwYsEF7UFf1V-6" value="Cek Nama dan NIM" style="rounded=0;whiteSpace=wrap;html=1;" parent="1" vertex="1">
          <mxGeometry x="10" width="120" height="60" as="geometry" />
        </mxCell>
        <mxCell id="ZxVhN1SiWwYsEF7UFf1V-13" style="edgeStyle=orthogonalEdgeStyle;rounded=0;orthogonalLoop=1;jettySize=auto;html=1;exitX=1;exitY=0.5;exitDx=0;exitDy=0;entryX=0;entryY=0.5;entryDx=0;entryDy=0;" parent="1" source="ZxVhN1SiWwYsEF7UFf1V-8" target="ZxVhN1SiWwYsEF7UFf1V-10" edge="1">
          <mxGeometry relative="1" as="geometry" />
        </mxCell>
        <mxCell id="ZxVhN1SiWwYsEF7UFf1V-17" style="edgeStyle=orthogonalEdgeStyle;rounded=0;orthogonalLoop=1;jettySize=auto;html=1;exitX=0.5;exitY=1;exitDx=0;exitDy=0;entryX=0.5;entryY=0;entryDx=0;entryDy=0;" parent="1" source="ZxVhN1SiWwYsEF7UFf1V-8" target="ZxVhN1SiWwYsEF7UFf1V-16" edge="1">
          <mxGeometry relative="1" as="geometry" />
        </mxCell>
        <mxCell id="ZxVhN1SiWwYsEF7UFf1V-8" value="Jika benar &quot;login berhasil dan jika salah&quot; ulang login" style="rhombus;whiteSpace=wrap;html=1;" parent="1" vertex="1">
          <mxGeometry x="5" y="150" width="130" height="80" as="geometry" />
        </mxCell>
        <mxCell id="ZxVhN1SiWwYsEF7UFf1V-12" style="edgeStyle=orthogonalEdgeStyle;rounded=0;orthogonalLoop=1;jettySize=auto;html=1;exitX=0.5;exitY=0;exitDx=0;exitDy=0;entryX=0.5;entryY=1;entryDx=0;entryDy=0;" parent="1" source="ZxVhN1SiWwYsEF7UFf1V-10" target="ZxVhN1SiWwYsEF7UFf1V-11" edge="1">
          <mxGeometry relative="1" as="geometry" />
        </mxCell>
        <mxCell id="ZxVhN1SiWwYsEF7UFf1V-10" value="Nama dan NIM yang anda masukkan salah" style="shape=parallelogram;perimeter=parallelogramPerimeter;whiteSpace=wrap;html=1;fixedSize=1;" parent="1" vertex="1">
          <mxGeometry x="210" y="160" width="120" height="60" as="geometry" />
        </mxCell>
        <mxCell id="ZxVhN1SiWwYsEF7UFf1V-11" value="Menampilkan batas login" style="rounded=0;whiteSpace=wrap;html=1;" parent="1" vertex="1">
          <mxGeometry x="210" width="120" height="60" as="geometry" />
        </mxCell>
        <mxCell id="ZxVhN1SiWwYsEF7UFf1V-14" style="edgeStyle=orthogonalEdgeStyle;rounded=0;orthogonalLoop=1;jettySize=auto;html=1;exitX=0.5;exitY=0;exitDx=0;exitDy=0;entryX=0.993;entryY=0.497;entryDx=0;entryDy=0;entryPerimeter=0;" parent="1" source="ZxVhN1SiWwYsEF7UFf1V-11" target="ZxVhN1SiWwYsEF7UFf1V-2" edge="1">
          <mxGeometry relative="1" as="geometry" />
        </mxCell>
        <mxCell id="ZxVhN1SiWwYsEF7UFf1V-15" value="No" style="text;html=1;align=center;verticalAlign=middle;whiteSpace=wrap;rounded=0;" parent="1" vertex="1">
          <mxGeometry x="135" y="160" width="60" height="30" as="geometry" />
        </mxCell>
        <mxCell id="ZxVhN1SiWwYsEF7UFf1V-19" style="edgeStyle=orthogonalEdgeStyle;rounded=0;orthogonalLoop=1;jettySize=auto;html=1;exitX=0.5;exitY=1;exitDx=0;exitDy=0;entryX=0.5;entryY=0;entryDx=0;entryDy=0;" parent="1" source="ZxVhN1SiWwYsEF7UFf1V-16" target="ZxVhN1SiWwYsEF7UFf1V-18" edge="1">
          <mxGeometry relative="1" as="geometry" />
        </mxCell>
        <mxCell id="ZxVhN1SiWwYsEF7UFf1V-16" value="Login berhasil" style="shape=parallelogram;perimeter=parallelogramPerimeter;whiteSpace=wrap;html=1;fixedSize=1;" parent="1" vertex="1">
          <mxGeometry x="10" y="280" width="120" height="60" as="geometry" />
        </mxCell>
        <mxCell id="ZxVhN1SiWwYsEF7UFf1V-21" style="edgeStyle=orthogonalEdgeStyle;rounded=0;orthogonalLoop=1;jettySize=auto;html=1;entryX=0.5;entryY=0;entryDx=0;entryDy=0;" parent="1" source="ZxVhN1SiWwYsEF7UFf1V-18" target="ZxVhN1SiWwYsEF7UFf1V-20" edge="1">
          <mxGeometry relative="1" as="geometry" />
        </mxCell>
        <mxCell id="ZxVhN1SiWwYsEF7UFf1V-18" value="Menampilkan menu konversi" style="shape=parallelogram;perimeter=parallelogramPerimeter;whiteSpace=wrap;html=1;fixedSize=1;" parent="1" vertex="1">
          <mxGeometry x="10" y="410" width="120" height="60" as="geometry" />
        </mxCell>
        <mxCell id="ZxVhN1SiWwYsEF7UFf1V-23" style="edgeStyle=orthogonalEdgeStyle;rounded=0;orthogonalLoop=1;jettySize=auto;html=1;exitX=0.5;exitY=1;exitDx=0;exitDy=0;entryX=0.5;entryY=0;entryDx=0;entryDy=0;" parent="1" source="ZxVhN1SiWwYsEF7UFf1V-20" target="ZxVhN1SiWwYsEF7UFf1V-22" edge="1">
          <mxGeometry relative="1" as="geometry" />
        </mxCell>
        <mxCell id="ZxVhN1SiWwYsEF7UFf1V-20" value="Memilih menu" style="shape=parallelogram;perimeter=parallelogramPerimeter;whiteSpace=wrap;html=1;fixedSize=1;" parent="1" vertex="1">
          <mxGeometry x="10" y="540" width="120" height="60" as="geometry" />
        </mxCell>
        <mxCell id="ZxVhN1SiWwYsEF7UFf1V-34" style="edgeStyle=orthogonalEdgeStyle;rounded=0;orthogonalLoop=1;jettySize=auto;html=1;entryX=0.5;entryY=0;entryDx=0;entryDy=0;" parent="1" source="ZxVhN1SiWwYsEF7UFf1V-22" target="ZxVhN1SiWwYsEF7UFf1V-25" edge="1">
          <mxGeometry relative="1" as="geometry" />
        </mxCell>
        <mxCell id="ZxVhN1SiWwYsEF7UFf1V-50" style="edgeStyle=orthogonalEdgeStyle;rounded=0;orthogonalLoop=1;jettySize=auto;html=1;entryX=1;entryY=0.5;entryDx=0;entryDy=0;" parent="1" source="ZxVhN1SiWwYsEF7UFf1V-22" target="ZxVhN1SiWwYsEF7UFf1V-37" edge="1">
          <mxGeometry relative="1" as="geometry" />
        </mxCell>
        <mxCell id="ZxVhN1SiWwYsEF7UFf1V-22" value="Menu 1" style="rhombus;whiteSpace=wrap;html=1;" parent="1" vertex="1">
          <mxGeometry x="30" y="680" width="80" height="80" as="geometry" />
        </mxCell>
        <mxCell id="ZxVhN1SiWwYsEF7UFf1V-24" value="Yes" style="text;html=1;align=center;verticalAlign=middle;whiteSpace=wrap;rounded=0;" parent="1" vertex="1">
          <mxGeometry x="20" y="230" width="60" height="30" as="geometry" />
        </mxCell>
        <mxCell id="ZxVhN1SiWwYsEF7UFf1V-27" style="edgeStyle=orthogonalEdgeStyle;rounded=0;orthogonalLoop=1;jettySize=auto;html=1;exitX=0.5;exitY=1;exitDx=0;exitDy=0;entryX=0.5;entryY=0;entryDx=0;entryDy=0;" parent="1" source="ZxVhN1SiWwYsEF7UFf1V-25" target="ZxVhN1SiWwYsEF7UFf1V-26" edge="1">
          <mxGeometry relative="1" as="geometry" />
        </mxCell>
        <mxCell id="ZxVhN1SiWwYsEF7UFf1V-25" value="Masukkan angka yang ingin di konversi" style="shape=parallelogram;perimeter=parallelogramPerimeter;whiteSpace=wrap;html=1;fixedSize=1;" parent="1" vertex="1">
          <mxGeometry x="10" y="810" width="120" height="60" as="geometry" />
        </mxCell>
        <mxCell id="ZxVhN1SiWwYsEF7UFf1V-32" style="edgeStyle=orthogonalEdgeStyle;rounded=0;orthogonalLoop=1;jettySize=auto;html=1;entryX=0.5;entryY=0;entryDx=0;entryDy=0;" parent="1" source="ZxVhN1SiWwYsEF7UFf1V-26" target="ZxVhN1SiWwYsEF7UFf1V-28" edge="1">
          <mxGeometry relative="1" as="geometry" />
        </mxCell>
        <mxCell id="ZxVhN1SiWwYsEF7UFf1V-26" value="Menampilkan hasil konversi km/jam ke (cm/detik, m/detik, mm/jam" style="shape=parallelogram;perimeter=parallelogramPerimeter;whiteSpace=wrap;html=1;fixedSize=1;" parent="1" vertex="1">
          <mxGeometry y="930" width="140" height="60" as="geometry" />
        </mxCell>
        <mxCell id="ZxVhN1SiWwYsEF7UFf1V-31" style="edgeStyle=orthogonalEdgeStyle;rounded=0;orthogonalLoop=1;jettySize=auto;html=1;entryX=0;entryY=0.5;entryDx=0;entryDy=0;" parent="1" source="ZxVhN1SiWwYsEF7UFf1V-28" target="ZxVhN1SiWwYsEF7UFf1V-30" edge="1">
          <mxGeometry relative="1" as="geometry" />
        </mxCell>
        <mxCell id="ZxVhN1SiWwYsEF7UFf1V-33" style="edgeStyle=orthogonalEdgeStyle;rounded=0;orthogonalLoop=1;jettySize=auto;html=1;entryX=0.5;entryY=0;entryDx=0;entryDy=0;" parent="1" source="ZxVhN1SiWwYsEF7UFf1V-28" target="ZxVhN1SiWwYsEF7UFf1V-29" edge="1">
          <mxGeometry relative="1" as="geometry" />
        </mxCell>
        <mxCell id="ZxVhN1SiWwYsEF7UFf1V-28" value="Lanjutkan/Tidak" style="rhombus;whiteSpace=wrap;html=1;" parent="1" vertex="1">
          <mxGeometry x="30" y="1040" width="80" height="80" as="geometry" />
        </mxCell>
        <mxCell id="ZxVhN1SiWwYsEF7UFf1V-29" value="Menu Konversi" style="ellipse;whiteSpace=wrap;html=1;aspect=fixed;" parent="1" vertex="1">
          <mxGeometry x="30" y="1180" width="80" height="80" as="geometry" />
        </mxCell>
        <mxCell id="ZxVhN1SiWwYsEF7UFf1V-30" value="Program Berhenti" style="shape=parallelogram;perimeter=parallelogramPerimeter;whiteSpace=wrap;html=1;fixedSize=1;" parent="1" vertex="1">
          <mxGeometry x="195" y="1050" width="120" height="60" as="geometry" />
        </mxCell>
        <mxCell id="ZxVhN1SiWwYsEF7UFf1V-35" value="No" style="text;html=1;align=center;verticalAlign=middle;whiteSpace=wrap;rounded=0;" parent="1" vertex="1">
          <mxGeometry x="120" y="1050" width="60" height="30" as="geometry" />
        </mxCell>
        <mxCell id="ZxVhN1SiWwYsEF7UFf1V-36" value="Yes" style="text;html=1;align=center;verticalAlign=middle;whiteSpace=wrap;rounded=0;" parent="1" vertex="1">
          <mxGeometry x="10" y="1130" width="60" height="30" as="geometry" />
        </mxCell>
        <mxCell id="ZxVhN1SiWwYsEF7UFf1V-43" style="edgeStyle=orthogonalEdgeStyle;rounded=0;orthogonalLoop=1;jettySize=auto;html=1;entryX=0.5;entryY=0;entryDx=0;entryDy=0;" parent="1" source="ZxVhN1SiWwYsEF7UFf1V-37" target="ZxVhN1SiWwYsEF7UFf1V-38" edge="1">
          <mxGeometry relative="1" as="geometry" />
        </mxCell>
        <mxCell id="ZxVhN1SiWwYsEF7UFf1V-64" style="edgeStyle=orthogonalEdgeStyle;rounded=0;orthogonalLoop=1;jettySize=auto;html=1;entryX=1;entryY=0.5;entryDx=0;entryDy=0;" parent="1" source="ZxVhN1SiWwYsEF7UFf1V-37" target="ZxVhN1SiWwYsEF7UFf1V-51" edge="1">
          <mxGeometry relative="1" as="geometry" />
        </mxCell>
        <mxCell id="ZxVhN1SiWwYsEF7UFf1V-37" value="Menu 2" style="rhombus;whiteSpace=wrap;html=1;" parent="1" vertex="1">
          <mxGeometry x="-370" y="680" width="80" height="80" as="geometry" />
        </mxCell>
        <mxCell id="ZxVhN1SiWwYsEF7UFf1V-44" style="edgeStyle=orthogonalEdgeStyle;rounded=0;orthogonalLoop=1;jettySize=auto;html=1;entryX=0.5;entryY=0;entryDx=0;entryDy=0;" parent="1" source="ZxVhN1SiWwYsEF7UFf1V-38" target="ZxVhN1SiWwYsEF7UFf1V-39" edge="1">
          <mxGeometry relative="1" as="geometry" />
        </mxCell>
        <mxCell id="ZxVhN1SiWwYsEF7UFf1V-38" value="Masukkan angka yang ingin di konversi" style="shape=parallelogram;perimeter=parallelogramPerimeter;whiteSpace=wrap;html=1;fixedSize=1;" parent="1" vertex="1">
          <mxGeometry x="-390" y="810" width="120" height="60" as="geometry" />
        </mxCell>
        <mxCell id="ZxVhN1SiWwYsEF7UFf1V-45" style="edgeStyle=orthogonalEdgeStyle;rounded=0;orthogonalLoop=1;jettySize=auto;html=1;entryX=0.5;entryY=0;entryDx=0;entryDy=0;" parent="1" source="ZxVhN1SiWwYsEF7UFf1V-39" target="ZxVhN1SiWwYsEF7UFf1V-40" edge="1">
          <mxGeometry relative="1" as="geometry" />
        </mxCell>
        <mxCell id="ZxVhN1SiWwYsEF7UFf1V-39" value="Menampilkan hasil konversi Cm/detik ke (km/jam, m/detik, mm/jam)" style="shape=parallelogram;perimeter=parallelogramPerimeter;whiteSpace=wrap;html=1;fixedSize=1;" parent="1" vertex="1">
          <mxGeometry x="-400" y="930" width="140" height="60" as="geometry" />
        </mxCell>
        <mxCell id="ZxVhN1SiWwYsEF7UFf1V-46" style="edgeStyle=orthogonalEdgeStyle;rounded=0;orthogonalLoop=1;jettySize=auto;html=1;entryX=0.5;entryY=0;entryDx=0;entryDy=0;" parent="1" source="ZxVhN1SiWwYsEF7UFf1V-40" target="ZxVhN1SiWwYsEF7UFf1V-42" edge="1">
          <mxGeometry relative="1" as="geometry" />
        </mxCell>
        <mxCell id="ZxVhN1SiWwYsEF7UFf1V-47" style="edgeStyle=orthogonalEdgeStyle;rounded=0;orthogonalLoop=1;jettySize=auto;html=1;entryX=0;entryY=0.5;entryDx=0;entryDy=0;" parent="1" source="ZxVhN1SiWwYsEF7UFf1V-40" target="ZxVhN1SiWwYsEF7UFf1V-41" edge="1">
          <mxGeometry relative="1" as="geometry" />
        </mxCell>
        <mxCell id="ZxVhN1SiWwYsEF7UFf1V-40" value="Lanjutkan/Tidak" style="rhombus;whiteSpace=wrap;html=1;" parent="1" vertex="1">
          <mxGeometry x="-370" y="1040" width="80" height="80" as="geometry" />
        </mxCell>
        <mxCell id="ZxVhN1SiWwYsEF7UFf1V-106" style="edgeStyle=orthogonalEdgeStyle;rounded=0;orthogonalLoop=1;jettySize=auto;html=1;" parent="1" source="ZxVhN1SiWwYsEF7UFf1V-41" edge="1">
          <mxGeometry relative="1" as="geometry">
            <mxPoint x="-180" y="1360" as="targetPoint" />
          </mxGeometry>
        </mxCell>
        <mxCell id="ZxVhN1SiWwYsEF7UFf1V-41" value="Program Berhenti" style="shape=parallelogram;perimeter=parallelogramPerimeter;whiteSpace=wrap;html=1;fixedSize=1;" parent="1" vertex="1">
          <mxGeometry x="-240" y="1050" width="120" height="60" as="geometry" />
        </mxCell>
        <mxCell id="ZxVhN1SiWwYsEF7UFf1V-42" value="Menu Konversi" style="ellipse;whiteSpace=wrap;html=1;aspect=fixed;" parent="1" vertex="1">
          <mxGeometry x="-370" y="1180" width="80" height="80" as="geometry" />
        </mxCell>
        <mxCell id="ZxVhN1SiWwYsEF7UFf1V-48" value="No" style="text;html=1;align=center;verticalAlign=middle;whiteSpace=wrap;rounded=0;" parent="1" vertex="1">
          <mxGeometry x="-280" y="1050" width="60" height="30" as="geometry" />
        </mxCell>
        <mxCell id="ZxVhN1SiWwYsEF7UFf1V-49" value="Yes" style="text;html=1;align=center;verticalAlign=middle;whiteSpace=wrap;rounded=0;" parent="1" vertex="1">
          <mxGeometry x="-400" y="1130" width="60" height="30" as="geometry" />
        </mxCell>
        <mxCell id="ZxVhN1SiWwYsEF7UFf1V-57" style="edgeStyle=orthogonalEdgeStyle;rounded=0;orthogonalLoop=1;jettySize=auto;html=1;entryX=0.5;entryY=0;entryDx=0;entryDy=0;" parent="1" source="ZxVhN1SiWwYsEF7UFf1V-51" target="ZxVhN1SiWwYsEF7UFf1V-52" edge="1">
          <mxGeometry relative="1" as="geometry" />
        </mxCell>
        <mxCell id="ZxVhN1SiWwYsEF7UFf1V-78" style="edgeStyle=orthogonalEdgeStyle;rounded=0;orthogonalLoop=1;jettySize=auto;html=1;entryX=1;entryY=0.5;entryDx=0;entryDy=0;" parent="1" source="ZxVhN1SiWwYsEF7UFf1V-51" target="ZxVhN1SiWwYsEF7UFf1V-65" edge="1">
          <mxGeometry relative="1" as="geometry" />
        </mxCell>
        <mxCell id="ZxVhN1SiWwYsEF7UFf1V-51" value="Menu 3" style="rhombus;whiteSpace=wrap;html=1;" parent="1" vertex="1">
          <mxGeometry x="-790" y="680" width="80" height="80" as="geometry" />
        </mxCell>
        <mxCell id="ZxVhN1SiWwYsEF7UFf1V-58" style="edgeStyle=orthogonalEdgeStyle;rounded=0;orthogonalLoop=1;jettySize=auto;html=1;entryX=0.5;entryY=0;entryDx=0;entryDy=0;" parent="1" source="ZxVhN1SiWwYsEF7UFf1V-52" target="ZxVhN1SiWwYsEF7UFf1V-53" edge="1">
          <mxGeometry relative="1" as="geometry" />
        </mxCell>
        <mxCell id="ZxVhN1SiWwYsEF7UFf1V-52" value="Masukkan angka yang ingin di konversi" style="shape=parallelogram;perimeter=parallelogramPerimeter;whiteSpace=wrap;html=1;fixedSize=1;" parent="1" vertex="1">
          <mxGeometry x="-810" y="810" width="120" height="60" as="geometry" />
        </mxCell>
        <mxCell id="ZxVhN1SiWwYsEF7UFf1V-59" style="edgeStyle=orthogonalEdgeStyle;rounded=0;orthogonalLoop=1;jettySize=auto;html=1;entryX=0.5;entryY=0;entryDx=0;entryDy=0;" parent="1" source="ZxVhN1SiWwYsEF7UFf1V-53" target="ZxVhN1SiWwYsEF7UFf1V-54" edge="1">
          <mxGeometry relative="1" as="geometry" />
        </mxCell>
        <mxCell id="ZxVhN1SiWwYsEF7UFf1V-53" value="Menampilkan hasil konversi m/detik ke (km/jam, cm/detik, mm/jam)" style="shape=parallelogram;perimeter=parallelogramPerimeter;whiteSpace=wrap;html=1;fixedSize=1;" parent="1" vertex="1">
          <mxGeometry x="-810" y="930" width="120" height="60" as="geometry" />
        </mxCell>
        <mxCell id="ZxVhN1SiWwYsEF7UFf1V-60" style="edgeStyle=orthogonalEdgeStyle;rounded=0;orthogonalLoop=1;jettySize=auto;html=1;entryX=0.5;entryY=0;entryDx=0;entryDy=0;" parent="1" source="ZxVhN1SiWwYsEF7UFf1V-54" target="ZxVhN1SiWwYsEF7UFf1V-55" edge="1">
          <mxGeometry relative="1" as="geometry" />
        </mxCell>
        <mxCell id="ZxVhN1SiWwYsEF7UFf1V-61" style="edgeStyle=orthogonalEdgeStyle;rounded=0;orthogonalLoop=1;jettySize=auto;html=1;entryX=0;entryY=0.5;entryDx=0;entryDy=0;" parent="1" source="ZxVhN1SiWwYsEF7UFf1V-54" target="ZxVhN1SiWwYsEF7UFf1V-56" edge="1">
          <mxGeometry relative="1" as="geometry" />
        </mxCell>
        <mxCell id="ZxVhN1SiWwYsEF7UFf1V-54" value="Lanjutkan/Tidak" style="rhombus;whiteSpace=wrap;html=1;" parent="1" vertex="1">
          <mxGeometry x="-790" y="1040" width="80" height="80" as="geometry" />
        </mxCell>
        <mxCell id="ZxVhN1SiWwYsEF7UFf1V-55" value="Menu Konversi" style="ellipse;whiteSpace=wrap;html=1;aspect=fixed;" parent="1" vertex="1">
          <mxGeometry x="-790" y="1180" width="80" height="80" as="geometry" />
        </mxCell>
        <mxCell id="ZxVhN1SiWwYsEF7UFf1V-101" style="edgeStyle=orthogonalEdgeStyle;rounded=0;orthogonalLoop=1;jettySize=auto;html=1;" parent="1" source="ZxVhN1SiWwYsEF7UFf1V-56" edge="1">
          <mxGeometry relative="1" as="geometry">
            <mxPoint x="-590" y="1360" as="targetPoint" />
          </mxGeometry>
        </mxCell>
        <mxCell id="ZxVhN1SiWwYsEF7UFf1V-56" value="Program Berhenti" style="shape=parallelogram;perimeter=parallelogramPerimeter;whiteSpace=wrap;html=1;fixedSize=1;" parent="1" vertex="1">
          <mxGeometry x="-650" y="1050" width="120" height="60" as="geometry" />
        </mxCell>
        <mxCell id="ZxVhN1SiWwYsEF7UFf1V-62" value="No" style="text;html=1;align=center;verticalAlign=middle;whiteSpace=wrap;rounded=0;" parent="1" vertex="1">
          <mxGeometry x="-710" y="1050" width="60" height="30" as="geometry" />
        </mxCell>
        <mxCell id="ZxVhN1SiWwYsEF7UFf1V-63" value="Yes" style="text;html=1;align=center;verticalAlign=middle;whiteSpace=wrap;rounded=0;" parent="1" vertex="1">
          <mxGeometry x="-810" y="1140" width="60" height="30" as="geometry" />
        </mxCell>
        <mxCell id="ZxVhN1SiWwYsEF7UFf1V-71" style="edgeStyle=orthogonalEdgeStyle;rounded=0;orthogonalLoop=1;jettySize=auto;html=1;entryX=0.5;entryY=0;entryDx=0;entryDy=0;" parent="1" source="ZxVhN1SiWwYsEF7UFf1V-65" target="ZxVhN1SiWwYsEF7UFf1V-66" edge="1">
          <mxGeometry relative="1" as="geometry" />
        </mxCell>
        <mxCell id="ZxVhN1SiWwYsEF7UFf1V-86" style="edgeStyle=orthogonalEdgeStyle;rounded=0;orthogonalLoop=1;jettySize=auto;html=1;entryX=1;entryY=0.5;entryDx=0;entryDy=0;" parent="1" source="ZxVhN1SiWwYsEF7UFf1V-65" target="ZxVhN1SiWwYsEF7UFf1V-79" edge="1">
          <mxGeometry relative="1" as="geometry" />
        </mxCell>
        <mxCell id="ZxVhN1SiWwYsEF7UFf1V-65" value="Menu 4" style="rhombus;whiteSpace=wrap;html=1;" parent="1" vertex="1">
          <mxGeometry x="-1110" y="680" width="80" height="80" as="geometry" />
        </mxCell>
        <mxCell id="ZxVhN1SiWwYsEF7UFf1V-72" style="edgeStyle=orthogonalEdgeStyle;rounded=0;orthogonalLoop=1;jettySize=auto;html=1;entryX=0.5;entryY=0;entryDx=0;entryDy=0;" parent="1" source="ZxVhN1SiWwYsEF7UFf1V-66" target="ZxVhN1SiWwYsEF7UFf1V-67" edge="1">
          <mxGeometry relative="1" as="geometry" />
        </mxCell>
        <mxCell id="ZxVhN1SiWwYsEF7UFf1V-66" value="Masukkan angka yang ingin dikonversi" style="shape=parallelogram;perimeter=parallelogramPerimeter;whiteSpace=wrap;html=1;fixedSize=1;" parent="1" vertex="1">
          <mxGeometry x="-1130" y="810" width="120" height="60" as="geometry" />
        </mxCell>
        <mxCell id="ZxVhN1SiWwYsEF7UFf1V-67" value="Menampilkan hasil konversi mm/jam ke (km/jam, cm/detik, m/detik)" style="shape=parallelogram;perimeter=parallelogramPerimeter;whiteSpace=wrap;html=1;fixedSize=1;" parent="1" vertex="1">
          <mxGeometry x="-1130" y="930" width="120" height="60" as="geometry" />
        </mxCell>
        <mxCell id="ZxVhN1SiWwYsEF7UFf1V-74" style="edgeStyle=orthogonalEdgeStyle;rounded=0;orthogonalLoop=1;jettySize=auto;html=1;entryX=0.5;entryY=0;entryDx=0;entryDy=0;" parent="1" source="ZxVhN1SiWwYsEF7UFf1V-68" target="ZxVhN1SiWwYsEF7UFf1V-70" edge="1">
          <mxGeometry relative="1" as="geometry" />
        </mxCell>
        <mxCell id="ZxVhN1SiWwYsEF7UFf1V-75" style="edgeStyle=orthogonalEdgeStyle;rounded=0;orthogonalLoop=1;jettySize=auto;html=1;entryX=0;entryY=0.5;entryDx=0;entryDy=0;" parent="1" source="ZxVhN1SiWwYsEF7UFf1V-68" target="ZxVhN1SiWwYsEF7UFf1V-69" edge="1">
          <mxGeometry relative="1" as="geometry" />
        </mxCell>
        <mxCell id="ZxVhN1SiWwYsEF7UFf1V-68" value="Lanjutkan/Tidak" style="rhombus;whiteSpace=wrap;html=1;" parent="1" vertex="1">
          <mxGeometry x="-1110" y="1040" width="80" height="80" as="geometry" />
        </mxCell>
        <mxCell id="ZxVhN1SiWwYsEF7UFf1V-100" style="edgeStyle=orthogonalEdgeStyle;rounded=0;orthogonalLoop=1;jettySize=auto;html=1;" parent="1" source="ZxVhN1SiWwYsEF7UFf1V-69" edge="1">
          <mxGeometry relative="1" as="geometry">
            <mxPoint x="-910" y="1360" as="targetPoint" />
          </mxGeometry>
        </mxCell>
        <mxCell id="ZxVhN1SiWwYsEF7UFf1V-69" value="Program Berhenti" style="shape=parallelogram;perimeter=parallelogramPerimeter;whiteSpace=wrap;html=1;fixedSize=1;" parent="1" vertex="1">
          <mxGeometry x="-970" y="1050" width="120" height="60" as="geometry" />
        </mxCell>
        <mxCell id="ZxVhN1SiWwYsEF7UFf1V-70" value="Menu Konversi" style="ellipse;whiteSpace=wrap;html=1;aspect=fixed;" parent="1" vertex="1">
          <mxGeometry x="-1110" y="1180" width="80" height="80" as="geometry" />
        </mxCell>
        <mxCell id="ZxVhN1SiWwYsEF7UFf1V-73" style="edgeStyle=orthogonalEdgeStyle;rounded=0;orthogonalLoop=1;jettySize=auto;html=1;entryX=0.5;entryY=0.125;entryDx=0;entryDy=0;entryPerimeter=0;" parent="1" source="ZxVhN1SiWwYsEF7UFf1V-67" target="ZxVhN1SiWwYsEF7UFf1V-68" edge="1">
          <mxGeometry relative="1" as="geometry" />
        </mxCell>
        <mxCell id="ZxVhN1SiWwYsEF7UFf1V-76" value="No" style="text;html=1;align=center;verticalAlign=middle;whiteSpace=wrap;rounded=0;" parent="1" vertex="1">
          <mxGeometry x="-1030" y="1050" width="60" height="30" as="geometry" />
        </mxCell>
        <mxCell id="ZxVhN1SiWwYsEF7UFf1V-77" value="Yes" style="text;html=1;align=center;verticalAlign=middle;whiteSpace=wrap;rounded=0;" parent="1" vertex="1">
          <mxGeometry x="-1130" y="1130" width="60" height="30" as="geometry" />
        </mxCell>
        <mxCell id="ZxVhN1SiWwYsEF7UFf1V-87" style="edgeStyle=orthogonalEdgeStyle;rounded=0;orthogonalLoop=1;jettySize=auto;html=1;entryX=1;entryY=0.5;entryDx=0;entryDy=0;" parent="1" source="ZxVhN1SiWwYsEF7UFf1V-79" target="ZxVhN1SiWwYsEF7UFf1V-82" edge="1">
          <mxGeometry relative="1" as="geometry" />
        </mxCell>
        <mxCell id="ZxVhN1SiWwYsEF7UFf1V-88" style="edgeStyle=orthogonalEdgeStyle;rounded=0;orthogonalLoop=1;jettySize=auto;html=1;entryX=0.5;entryY=0;entryDx=0;entryDy=0;" parent="1" source="ZxVhN1SiWwYsEF7UFf1V-79" target="ZxVhN1SiWwYsEF7UFf1V-81" edge="1">
          <mxGeometry relative="1" as="geometry" />
        </mxCell>
        <mxCell id="ZxVhN1SiWwYsEF7UFf1V-79" value="Menu 5" style="rhombus;whiteSpace=wrap;html=1;" parent="1" vertex="1">
          <mxGeometry x="-1320" y="680" width="80" height="80" as="geometry" />
        </mxCell>
        <mxCell id="ZxVhN1SiWwYsEF7UFf1V-99" style="edgeStyle=orthogonalEdgeStyle;rounded=0;orthogonalLoop=1;jettySize=auto;html=1;" parent="1" source="ZxVhN1SiWwYsEF7UFf1V-81" edge="1">
          <mxGeometry relative="1" as="geometry">
            <mxPoint x="-1280" y="1360" as="targetPoint" />
          </mxGeometry>
        </mxCell>
        <mxCell id="ZxVhN1SiWwYsEF7UFf1V-81" value="Program Berhenti" style="shape=parallelogram;perimeter=parallelogramPerimeter;whiteSpace=wrap;html=1;fixedSize=1;" parent="1" vertex="1">
          <mxGeometry x="-1340" y="810" width="120" height="60" as="geometry" />
        </mxCell>
        <mxCell id="ZxVhN1SiWwYsEF7UFf1V-89" style="edgeStyle=orthogonalEdgeStyle;rounded=0;orthogonalLoop=1;jettySize=auto;html=1;entryX=0.5;entryY=0;entryDx=0;entryDy=0;" parent="1" source="ZxVhN1SiWwYsEF7UFf1V-82" target="ZxVhN1SiWwYsEF7UFf1V-83" edge="1">
          <mxGeometry relative="1" as="geometry" />
        </mxCell>
        <mxCell id="ZxVhN1SiWwYsEF7UFf1V-82" value="Menampilkan Pilihan tidak ada" style="shape=parallelogram;perimeter=parallelogramPerimeter;whiteSpace=wrap;html=1;fixedSize=1;" parent="1" vertex="1">
          <mxGeometry x="-1520" y="690" width="120" height="60" as="geometry" />
        </mxCell>
        <mxCell id="ZxVhN1SiWwYsEF7UFf1V-90" style="edgeStyle=orthogonalEdgeStyle;rounded=0;orthogonalLoop=1;jettySize=auto;html=1;entryX=1;entryY=0.5;entryDx=0;entryDy=0;" parent="1" source="ZxVhN1SiWwYsEF7UFf1V-83" target="ZxVhN1SiWwYsEF7UFf1V-85" edge="1">
          <mxGeometry relative="1" as="geometry" />
        </mxCell>
        <mxCell id="ZxVhN1SiWwYsEF7UFf1V-91" style="edgeStyle=orthogonalEdgeStyle;rounded=0;orthogonalLoop=1;jettySize=auto;html=1;entryX=0.5;entryY=0;entryDx=0;entryDy=0;" parent="1" source="ZxVhN1SiWwYsEF7UFf1V-83" target="ZxVhN1SiWwYsEF7UFf1V-84" edge="1">
          <mxGeometry relative="1" as="geometry" />
        </mxCell>
        <mxCell id="ZxVhN1SiWwYsEF7UFf1V-83" value="Lanjut/Tidak" style="rhombus;whiteSpace=wrap;html=1;" parent="1" vertex="1">
          <mxGeometry x="-1500" y="800" width="80" height="80" as="geometry" />
        </mxCell>
        <mxCell id="ZxVhN1SiWwYsEF7UFf1V-84" value="Menu Konversi" style="ellipse;whiteSpace=wrap;html=1;aspect=fixed;" parent="1" vertex="1">
          <mxGeometry x="-1500" y="930" width="80" height="80" as="geometry" />
        </mxCell>
        <mxCell id="ZxVhN1SiWwYsEF7UFf1V-85" value="Program Berhenti" style="shape=parallelogram;perimeter=parallelogramPerimeter;whiteSpace=wrap;html=1;fixedSize=1;" parent="1" vertex="1">
          <mxGeometry x="-1700" y="810" width="120" height="60" as="geometry" />
        </mxCell>
        <mxCell id="ZxVhN1SiWwYsEF7UFf1V-92" value="Yes" style="text;html=1;align=center;verticalAlign=middle;whiteSpace=wrap;rounded=0;" parent="1" vertex="1">
          <mxGeometry x="-1520" y="880" width="60" height="30" as="geometry" />
        </mxCell>
        <mxCell id="ZxVhN1SiWwYsEF7UFf1V-93" value="No" style="text;html=1;align=center;verticalAlign=middle;whiteSpace=wrap;rounded=0;" parent="1" vertex="1">
          <mxGeometry x="-1570" y="810" width="60" height="30" as="geometry" />
        </mxCell>
        <mxCell id="ZxVhN1SiWwYsEF7UFf1V-94" value="End" style="ellipse;whiteSpace=wrap;html=1;" parent="1" vertex="1">
          <mxGeometry x="-580" y="1320" width="120" height="80" as="geometry" />
        </mxCell>
        <mxCell id="ZxVhN1SiWwYsEF7UFf1V-97" value="" style="endArrow=none;html=1;rounded=0;" parent="1" edge="1">
          <mxGeometry width="50" height="50" relative="1" as="geometry">
            <mxPoint x="-1640" y="1360" as="sourcePoint" />
            <mxPoint x="-1640" y="870" as="targetPoint" />
          </mxGeometry>
        </mxCell>
        <mxCell id="ZxVhN1SiWwYsEF7UFf1V-98" value="" style="endArrow=classic;html=1;rounded=0;entryX=0;entryY=0.5;entryDx=0;entryDy=0;" parent="1" target="ZxVhN1SiWwYsEF7UFf1V-94" edge="1">
          <mxGeometry width="50" height="50" relative="1" as="geometry">
            <mxPoint x="-1640" y="1360" as="sourcePoint" />
            <mxPoint x="-1590" y="1310" as="targetPoint" />
          </mxGeometry>
        </mxCell>
        <mxCell id="ZxVhN1SiWwYsEF7UFf1V-104" value="" style="endArrow=none;html=1;rounded=0;" parent="1" edge="1">
          <mxGeometry width="50" height="50" relative="1" as="geometry">
            <mxPoint x="260" y="1360" as="sourcePoint" />
            <mxPoint x="260" y="1110" as="targetPoint" />
          </mxGeometry>
        </mxCell>
        <mxCell id="ZxVhN1SiWwYsEF7UFf1V-105" value="" style="endArrow=classic;html=1;rounded=0;entryX=1;entryY=0.5;entryDx=0;entryDy=0;" parent="1" target="ZxVhN1SiWwYsEF7UFf1V-94" edge="1">
          <mxGeometry width="50" height="50" relative="1" as="geometry">
            <mxPoint x="260" y="1360" as="sourcePoint" />
            <mxPoint x="310" y="1310" as="targetPoint" />
          </mxGeometry>
        </mxCell>
        <mxCell id="970fK7SXtSsKOQSzyCmV-8" style="edgeStyle=orthogonalEdgeStyle;rounded=0;orthogonalLoop=1;jettySize=auto;html=1;entryX=0.5;entryY=0;entryDx=0;entryDy=0;" edge="1" parent="1" source="970fK7SXtSsKOQSzyCmV-1" target="970fK7SXtSsKOQSzyCmV-2">
          <mxGeometry relative="1" as="geometry" />
        </mxCell>
        <mxCell id="970fK7SXtSsKOQSzyCmV-1" value="Start" style="ellipse;whiteSpace=wrap;html=1;" vertex="1" parent="1">
          <mxGeometry x="-1190" y="-440" width="120" height="80" as="geometry" />
        </mxCell>
        <mxCell id="970fK7SXtSsKOQSzyCmV-9" style="edgeStyle=orthogonalEdgeStyle;rounded=0;orthogonalLoop=1;jettySize=auto;html=1;entryX=0.5;entryY=0;entryDx=0;entryDy=0;" edge="1" parent="1" source="970fK7SXtSsKOQSzyCmV-2" target="970fK7SXtSsKOQSzyCmV-3">
          <mxGeometry relative="1" as="geometry" />
        </mxCell>
        <mxCell id="970fK7SXtSsKOQSzyCmV-2" value="Login&lt;div&gt;Masukkan Nama&lt;/div&gt;" style="shape=parallelogram;perimeter=parallelogramPerimeter;whiteSpace=wrap;html=1;fixedSize=1;" vertex="1" parent="1">
          <mxGeometry x="-1190" y="-320" width="120" height="60" as="geometry" />
        </mxCell>
        <mxCell id="970fK7SXtSsKOQSzyCmV-10" style="edgeStyle=orthogonalEdgeStyle;rounded=0;orthogonalLoop=1;jettySize=auto;html=1;entryX=0.5;entryY=0;entryDx=0;entryDy=0;" edge="1" parent="1" source="970fK7SXtSsKOQSzyCmV-3" target="970fK7SXtSsKOQSzyCmV-4">
          <mxGeometry relative="1" as="geometry" />
        </mxCell>
        <mxCell id="970fK7SXtSsKOQSzyCmV-3" value="Memasukkan NIM" style="shape=parallelogram;perimeter=parallelogramPerimeter;whiteSpace=wrap;html=1;fixedSize=1;" vertex="1" parent="1">
          <mxGeometry x="-1190" y="-220" width="120" height="60" as="geometry" />
        </mxCell>
        <mxCell id="970fK7SXtSsKOQSzyCmV-11" style="edgeStyle=orthogonalEdgeStyle;rounded=0;orthogonalLoop=1;jettySize=auto;html=1;entryX=0.5;entryY=0;entryDx=0;entryDy=0;" edge="1" parent="1" source="970fK7SXtSsKOQSzyCmV-4" target="970fK7SXtSsKOQSzyCmV-5">
          <mxGeometry relative="1" as="geometry" />
        </mxCell>
        <mxCell id="970fK7SXtSsKOQSzyCmV-4" value="Mengecek Nama dan NIM" style="rounded=0;whiteSpace=wrap;html=1;" vertex="1" parent="1">
          <mxGeometry x="-1190" y="-120" width="120" height="60" as="geometry" />
        </mxCell>
        <mxCell id="970fK7SXtSsKOQSzyCmV-12" style="edgeStyle=orthogonalEdgeStyle;rounded=0;orthogonalLoop=1;jettySize=auto;html=1;entryX=0;entryY=0.5;entryDx=0;entryDy=0;" edge="1" parent="1" source="970fK7SXtSsKOQSzyCmV-5" target="970fK7SXtSsKOQSzyCmV-6">
          <mxGeometry relative="1" as="geometry" />
        </mxCell>
        <mxCell id="970fK7SXtSsKOQSzyCmV-18" style="edgeStyle=orthogonalEdgeStyle;rounded=0;orthogonalLoop=1;jettySize=auto;html=1;entryX=0.5;entryY=0;entryDx=0;entryDy=0;" edge="1" parent="1" source="970fK7SXtSsKOQSzyCmV-5" target="970fK7SXtSsKOQSzyCmV-17">
          <mxGeometry relative="1" as="geometry" />
        </mxCell>
        <mxCell id="970fK7SXtSsKOQSzyCmV-5" value="Jika benar&quot;Login berhasil&quot;&lt;div&gt;jika salah &quot;Mengulang Login&quot;&lt;/div&gt;" style="rhombus;whiteSpace=wrap;html=1;" vertex="1" parent="1">
          <mxGeometry x="-1190" y="-20" width="120" height="110" as="geometry" />
        </mxCell>
        <mxCell id="970fK7SXtSsKOQSzyCmV-13" style="edgeStyle=orthogonalEdgeStyle;rounded=0;orthogonalLoop=1;jettySize=auto;html=1;entryX=0.5;entryY=1;entryDx=0;entryDy=0;" edge="1" parent="1" source="970fK7SXtSsKOQSzyCmV-6" target="970fK7SXtSsKOQSzyCmV-7">
          <mxGeometry relative="1" as="geometry" />
        </mxCell>
        <mxCell id="970fK7SXtSsKOQSzyCmV-6" value="Nama atau NIM yang anda masukkan salah" style="shape=parallelogram;perimeter=parallelogramPerimeter;whiteSpace=wrap;html=1;fixedSize=1;" vertex="1" parent="1">
          <mxGeometry x="-1000" y="5" width="120" height="60" as="geometry" />
        </mxCell>
        <mxCell id="970fK7SXtSsKOQSzyCmV-7" value="Menampilkan batas login" style="shape=parallelogram;perimeter=parallelogramPerimeter;whiteSpace=wrap;html=1;fixedSize=1;" vertex="1" parent="1">
          <mxGeometry x="-1000" y="-120" width="120" height="60" as="geometry" />
        </mxCell>
        <mxCell id="970fK7SXtSsKOQSzyCmV-15" value="" style="endArrow=none;html=1;rounded=0;" edge="1" parent="1">
          <mxGeometry width="50" height="50" relative="1" as="geometry">
            <mxPoint x="-940" y="-120" as="sourcePoint" />
            <mxPoint x="-940" y="-290" as="targetPoint" />
          </mxGeometry>
        </mxCell>
        <mxCell id="970fK7SXtSsKOQSzyCmV-16" value="" style="endArrow=classic;html=1;rounded=0;entryX=1;entryY=0.5;entryDx=0;entryDy=0;" edge="1" parent="1" target="970fK7SXtSsKOQSzyCmV-2">
          <mxGeometry width="50" height="50" relative="1" as="geometry">
            <mxPoint x="-940" y="-290" as="sourcePoint" />
            <mxPoint x="-890" y="-340" as="targetPoint" />
          </mxGeometry>
        </mxCell>
        <mxCell id="970fK7SXtSsKOQSzyCmV-23" style="edgeStyle=orthogonalEdgeStyle;rounded=0;orthogonalLoop=1;jettySize=auto;html=1;entryX=0.5;entryY=0;entryDx=0;entryDy=0;" edge="1" parent="1" source="970fK7SXtSsKOQSzyCmV-17" target="970fK7SXtSsKOQSzyCmV-21">
          <mxGeometry relative="1" as="geometry" />
        </mxCell>
        <mxCell id="970fK7SXtSsKOQSzyCmV-17" value="Menampilkan login berhasil" style="shape=parallelogram;perimeter=parallelogramPerimeter;whiteSpace=wrap;html=1;fixedSize=1;" vertex="1" parent="1">
          <mxGeometry x="-1190" y="160" width="120" height="60" as="geometry" />
        </mxCell>
        <mxCell id="970fK7SXtSsKOQSzyCmV-19" value="NO" style="text;html=1;align=center;verticalAlign=middle;whiteSpace=wrap;rounded=0;" vertex="1" parent="1">
          <mxGeometry x="-1070" width="60" height="30" as="geometry" />
        </mxCell>
        <mxCell id="970fK7SXtSsKOQSzyCmV-20" value="Yes" style="text;html=1;align=center;verticalAlign=middle;whiteSpace=wrap;rounded=0;" vertex="1" parent="1">
          <mxGeometry x="-1190" y="100" width="60" height="30" as="geometry" />
        </mxCell>
        <mxCell id="970fK7SXtSsKOQSzyCmV-24" style="edgeStyle=orthogonalEdgeStyle;rounded=0;orthogonalLoop=1;jettySize=auto;html=1;entryX=0.5;entryY=0;entryDx=0;entryDy=0;" edge="1" parent="1" source="970fK7SXtSsKOQSzyCmV-21" target="970fK7SXtSsKOQSzyCmV-22">
          <mxGeometry relative="1" as="geometry" />
        </mxCell>
        <mxCell id="970fK7SXtSsKOQSzyCmV-21" value="Menampilkan Menu" style="shape=parallelogram;perimeter=parallelogramPerimeter;whiteSpace=wrap;html=1;fixedSize=1;" vertex="1" parent="1">
          <mxGeometry x="-1190" y="270" width="120" height="60" as="geometry" />
        </mxCell>
        <mxCell id="970fK7SXtSsKOQSzyCmV-22" value="Memilih Menu" style="shape=parallelogram;perimeter=parallelogramPerimeter;whiteSpace=wrap;html=1;fixedSize=1;" vertex="1" parent="1">
          <mxGeometry x="-1190" y="380" width="120" height="60" as="geometry" />
        </mxCell>
      </root>
    </mxGraphModel>
  </diagram>
  <diagram id="dcEeEeuHgG6UprjZkp4N" name="Page-2">
    <mxGraphModel dx="4035" dy="1065" grid="1" gridSize="10" guides="1" tooltips="1" connect="1" arrows="1" fold="1" page="0" pageScale="1" pageWidth="1100" pageHeight="850" math="0" shadow="0">
      <root>
        <mxCell id="0" />
        <mxCell id="1" parent="0" />
        <mxCell id="uk8q2xioxf8q4oCGetGS-1" style="edgeStyle=orthogonalEdgeStyle;rounded=0;orthogonalLoop=1;jettySize=auto;html=1;entryX=0.5;entryY=0;entryDx=0;entryDy=0;" edge="1" parent="1" target="uk8q2xioxf8q4oCGetGS-3">
          <mxGeometry relative="1" as="geometry">
            <mxPoint x="-1130" y="-360" as="sourcePoint" />
          </mxGeometry>
        </mxCell>
        <mxCell id="uk8q2xioxf8q4oCGetGS-2" style="edgeStyle=orthogonalEdgeStyle;rounded=0;orthogonalLoop=1;jettySize=auto;html=1;entryX=0.5;entryY=0;entryDx=0;entryDy=0;" edge="1" parent="1" source="uk8q2xioxf8q4oCGetGS-3" target="uk8q2xioxf8q4oCGetGS-5">
          <mxGeometry relative="1" as="geometry" />
        </mxCell>
        <mxCell id="uk8q2xioxf8q4oCGetGS-3" value="Login&lt;div&gt;Masukkan Nama&lt;/div&gt;" style="shape=parallelogram;perimeter=parallelogramPerimeter;whiteSpace=wrap;html=1;fixedSize=1;" vertex="1" parent="1">
          <mxGeometry x="-1190" y="-320" width="120" height="60" as="geometry" />
        </mxCell>
        <mxCell id="uk8q2xioxf8q4oCGetGS-4" style="edgeStyle=orthogonalEdgeStyle;rounded=0;orthogonalLoop=1;jettySize=auto;html=1;entryX=0.5;entryY=0;entryDx=0;entryDy=0;" edge="1" parent="1" source="uk8q2xioxf8q4oCGetGS-5" target="uk8q2xioxf8q4oCGetGS-7">
          <mxGeometry relative="1" as="geometry" />
        </mxCell>
        <mxCell id="uk8q2xioxf8q4oCGetGS-5" value="Memasukkan NIM" style="shape=parallelogram;perimeter=parallelogramPerimeter;whiteSpace=wrap;html=1;fixedSize=1;" vertex="1" parent="1">
          <mxGeometry x="-1190" y="-220" width="120" height="60" as="geometry" />
        </mxCell>
        <mxCell id="uk8q2xioxf8q4oCGetGS-6" style="edgeStyle=orthogonalEdgeStyle;rounded=0;orthogonalLoop=1;jettySize=auto;html=1;entryX=0.5;entryY=0;entryDx=0;entryDy=0;" edge="1" parent="1" source="uk8q2xioxf8q4oCGetGS-7" target="uk8q2xioxf8q4oCGetGS-10">
          <mxGeometry relative="1" as="geometry" />
        </mxCell>
        <mxCell id="uk8q2xioxf8q4oCGetGS-7" value="Mengecek Nama dan NIM" style="rounded=0;whiteSpace=wrap;html=1;" vertex="1" parent="1">
          <mxGeometry x="-1190" y="-120" width="120" height="60" as="geometry" />
        </mxCell>
        <mxCell id="uk8q2xioxf8q4oCGetGS-8" style="edgeStyle=orthogonalEdgeStyle;rounded=0;orthogonalLoop=1;jettySize=auto;html=1;entryX=0;entryY=0.5;entryDx=0;entryDy=0;" edge="1" parent="1" source="uk8q2xioxf8q4oCGetGS-10" target="uk8q2xioxf8q4oCGetGS-12">
          <mxGeometry relative="1" as="geometry" />
        </mxCell>
        <mxCell id="uk8q2xioxf8q4oCGetGS-9" style="edgeStyle=orthogonalEdgeStyle;rounded=0;orthogonalLoop=1;jettySize=auto;html=1;entryX=0.5;entryY=0;entryDx=0;entryDy=0;" edge="1" parent="1" source="uk8q2xioxf8q4oCGetGS-10" target="uk8q2xioxf8q4oCGetGS-17">
          <mxGeometry relative="1" as="geometry" />
        </mxCell>
        <mxCell id="uk8q2xioxf8q4oCGetGS-10" value="Jika benar&quot;Login berhasil&quot;&lt;div&gt;jika salah &quot;Mengulang Login&quot;&lt;/div&gt;" style="rhombus;whiteSpace=wrap;html=1;" vertex="1" parent="1">
          <mxGeometry x="-1190" y="-20" width="120" height="110" as="geometry" />
        </mxCell>
        <mxCell id="uk8q2xioxf8q4oCGetGS-11" style="edgeStyle=orthogonalEdgeStyle;rounded=0;orthogonalLoop=1;jettySize=auto;html=1;entryX=0.5;entryY=1;entryDx=0;entryDy=0;" edge="1" parent="1" source="uk8q2xioxf8q4oCGetGS-12" target="uk8q2xioxf8q4oCGetGS-13">
          <mxGeometry relative="1" as="geometry" />
        </mxCell>
        <mxCell id="uk8q2xioxf8q4oCGetGS-12" value="Nama atau NIM yang anda masukkan salah" style="shape=parallelogram;perimeter=parallelogramPerimeter;whiteSpace=wrap;html=1;fixedSize=1;" vertex="1" parent="1">
          <mxGeometry x="-1000" y="5" width="120" height="60" as="geometry" />
        </mxCell>
        <mxCell id="uk8q2xioxf8q4oCGetGS-13" value="Menampilkan batas login" style="shape=parallelogram;perimeter=parallelogramPerimeter;whiteSpace=wrap;html=1;fixedSize=1;" vertex="1" parent="1">
          <mxGeometry x="-1000" y="-120" width="120" height="60" as="geometry" />
        </mxCell>
        <mxCell id="uk8q2xioxf8q4oCGetGS-14" value="" style="endArrow=none;html=1;rounded=0;" edge="1" parent="1">
          <mxGeometry width="50" height="50" relative="1" as="geometry">
            <mxPoint x="-940" y="-120" as="sourcePoint" />
            <mxPoint x="-940" y="-290" as="targetPoint" />
          </mxGeometry>
        </mxCell>
        <mxCell id="uk8q2xioxf8q4oCGetGS-15" value="" style="endArrow=classic;html=1;rounded=0;entryX=1;entryY=0.5;entryDx=0;entryDy=0;" edge="1" parent="1" target="uk8q2xioxf8q4oCGetGS-3">
          <mxGeometry width="50" height="50" relative="1" as="geometry">
            <mxPoint x="-940" y="-290" as="sourcePoint" />
            <mxPoint x="-890" y="-340" as="targetPoint" />
          </mxGeometry>
        </mxCell>
        <mxCell id="uk8q2xioxf8q4oCGetGS-16" style="edgeStyle=orthogonalEdgeStyle;rounded=0;orthogonalLoop=1;jettySize=auto;html=1;entryX=0.5;entryY=0;entryDx=0;entryDy=0;" edge="1" parent="1" source="uk8q2xioxf8q4oCGetGS-17" target="uk8q2xioxf8q4oCGetGS-21">
          <mxGeometry relative="1" as="geometry" />
        </mxCell>
        <mxCell id="uk8q2xioxf8q4oCGetGS-17" value="Menampilkan login berhasil" style="shape=parallelogram;perimeter=parallelogramPerimeter;whiteSpace=wrap;html=1;fixedSize=1;" vertex="1" parent="1">
          <mxGeometry x="-1190" y="160" width="120" height="60" as="geometry" />
        </mxCell>
        <mxCell id="uk8q2xioxf8q4oCGetGS-18" value="NO" style="text;html=1;align=center;verticalAlign=middle;whiteSpace=wrap;rounded=0;" vertex="1" parent="1">
          <mxGeometry x="-1070" width="60" height="30" as="geometry" />
        </mxCell>
        <mxCell id="uk8q2xioxf8q4oCGetGS-19" value="Yes" style="text;html=1;align=center;verticalAlign=middle;whiteSpace=wrap;rounded=0;" vertex="1" parent="1">
          <mxGeometry x="-1190" y="100" width="60" height="30" as="geometry" />
        </mxCell>
        <mxCell id="uk8q2xioxf8q4oCGetGS-20" style="edgeStyle=orthogonalEdgeStyle;rounded=0;orthogonalLoop=1;jettySize=auto;html=1;entryX=0.5;entryY=0;entryDx=0;entryDy=0;" edge="1" parent="1" source="uk8q2xioxf8q4oCGetGS-21" target="uk8q2xioxf8q4oCGetGS-22">
          <mxGeometry relative="1" as="geometry" />
        </mxCell>
        <mxCell id="uk8q2xioxf8q4oCGetGS-21" value="Menampilkan Menu" style="shape=parallelogram;perimeter=parallelogramPerimeter;whiteSpace=wrap;html=1;fixedSize=1;" vertex="1" parent="1">
          <mxGeometry x="-1190" y="270" width="120" height="60" as="geometry" />
        </mxCell>
        <mxCell id="Oqbz7aaS4PAVNcTpMLKT-9" style="edgeStyle=orthogonalEdgeStyle;rounded=0;orthogonalLoop=1;jettySize=auto;html=1;entryX=0.5;entryY=0;entryDx=0;entryDy=0;" edge="1" parent="1" source="uk8q2xioxf8q4oCGetGS-22" target="Oqbz7aaS4PAVNcTpMLKT-1">
          <mxGeometry relative="1" as="geometry" />
        </mxCell>
        <mxCell id="uk8q2xioxf8q4oCGetGS-22" value="Memilih Menu" style="shape=parallelogram;perimeter=parallelogramPerimeter;whiteSpace=wrap;html=1;fixedSize=1;" vertex="1" parent="1">
          <mxGeometry x="-1190" y="380" width="120" height="60" as="geometry" />
        </mxCell>
        <mxCell id="Oqbz7aaS4PAVNcTpMLKT-10" style="edgeStyle=orthogonalEdgeStyle;rounded=0;orthogonalLoop=1;jettySize=auto;html=1;entryX=0.5;entryY=0;entryDx=0;entryDy=0;" edge="1" parent="1" source="Oqbz7aaS4PAVNcTpMLKT-1" target="Oqbz7aaS4PAVNcTpMLKT-2">
          <mxGeometry relative="1" as="geometry" />
        </mxCell>
        <mxCell id="Oqbz7aaS4PAVNcTpMLKT-26" style="edgeStyle=orthogonalEdgeStyle;rounded=0;orthogonalLoop=1;jettySize=auto;html=1;entryX=1;entryY=0.5;entryDx=0;entryDy=0;" edge="1" parent="1" source="Oqbz7aaS4PAVNcTpMLKT-1" target="Oqbz7aaS4PAVNcTpMLKT-21">
          <mxGeometry relative="1" as="geometry" />
        </mxCell>
        <mxCell id="Oqbz7aaS4PAVNcTpMLKT-1" value="Menu 1&lt;br&gt;&quot;Pinjam Buku&quot;" style="rhombus;whiteSpace=wrap;html=1;" vertex="1" parent="1">
          <mxGeometry x="-1170" y="520" width="80" height="80" as="geometry" />
        </mxCell>
        <mxCell id="Oqbz7aaS4PAVNcTpMLKT-11" style="edgeStyle=orthogonalEdgeStyle;rounded=0;orthogonalLoop=1;jettySize=auto;html=1;entryX=0.5;entryY=0;entryDx=0;entryDy=0;" edge="1" parent="1" source="Oqbz7aaS4PAVNcTpMLKT-2" target="Oqbz7aaS4PAVNcTpMLKT-3">
          <mxGeometry relative="1" as="geometry" />
        </mxCell>
        <mxCell id="Oqbz7aaS4PAVNcTpMLKT-2" value="Masukkan&lt;div&gt;Judul Buku yang&lt;/div&gt;&lt;div&gt;ingin dipinjam&lt;/div&gt;" style="shape=parallelogram;perimeter=parallelogramPerimeter;whiteSpace=wrap;html=1;fixedSize=1;" vertex="1" parent="1">
          <mxGeometry x="-1190" y="640" width="120" height="60" as="geometry" />
        </mxCell>
        <mxCell id="Oqbz7aaS4PAVNcTpMLKT-12" style="edgeStyle=orthogonalEdgeStyle;rounded=0;orthogonalLoop=1;jettySize=auto;html=1;entryX=0.5;entryY=0;entryDx=0;entryDy=0;" edge="1" parent="1" source="Oqbz7aaS4PAVNcTpMLKT-3" target="Oqbz7aaS4PAVNcTpMLKT-4">
          <mxGeometry relative="1" as="geometry" />
        </mxCell>
        <mxCell id="Oqbz7aaS4PAVNcTpMLKT-3" value="Masukkan&amp;nbsp;&lt;div&gt;Nama Pengarang&lt;/div&gt;" style="shape=parallelogram;perimeter=parallelogramPerimeter;whiteSpace=wrap;html=1;fixedSize=1;" vertex="1" parent="1">
          <mxGeometry x="-1190" y="750" width="120" height="60" as="geometry" />
        </mxCell>
        <mxCell id="Oqbz7aaS4PAVNcTpMLKT-13" style="edgeStyle=orthogonalEdgeStyle;rounded=0;orthogonalLoop=1;jettySize=auto;html=1;entryX=0.5;entryY=0;entryDx=0;entryDy=0;" edge="1" parent="1" source="Oqbz7aaS4PAVNcTpMLKT-4" target="Oqbz7aaS4PAVNcTpMLKT-5">
          <mxGeometry relative="1" as="geometry" />
        </mxCell>
        <mxCell id="Oqbz7aaS4PAVNcTpMLKT-4" value="Masukkan jumlah yang ingin dipinjam" style="shape=parallelogram;perimeter=parallelogramPerimeter;whiteSpace=wrap;html=1;fixedSize=1;" vertex="1" parent="1">
          <mxGeometry x="-1190" y="860" width="120" height="60" as="geometry" />
        </mxCell>
        <mxCell id="Oqbz7aaS4PAVNcTpMLKT-14" style="edgeStyle=orthogonalEdgeStyle;rounded=0;orthogonalLoop=1;jettySize=auto;html=1;entryX=0.5;entryY=0;entryDx=0;entryDy=0;" edge="1" parent="1" source="Oqbz7aaS4PAVNcTpMLKT-5" target="Oqbz7aaS4PAVNcTpMLKT-6">
          <mxGeometry relative="1" as="geometry" />
        </mxCell>
        <mxCell id="Oqbz7aaS4PAVNcTpMLKT-5" value="Menampilkan&lt;div&gt;&quot;Peminjaman selesai&quot;&lt;/div&gt;" style="shape=parallelogram;perimeter=parallelogramPerimeter;whiteSpace=wrap;html=1;fixedSize=1;" vertex="1" parent="1">
          <mxGeometry x="-1190" y="960" width="120" height="60" as="geometry" />
        </mxCell>
        <mxCell id="Oqbz7aaS4PAVNcTpMLKT-16" style="edgeStyle=orthogonalEdgeStyle;rounded=0;orthogonalLoop=1;jettySize=auto;html=1;entryX=0.5;entryY=0;entryDx=0;entryDy=0;" edge="1" parent="1" source="Oqbz7aaS4PAVNcTpMLKT-6" target="Oqbz7aaS4PAVNcTpMLKT-7">
          <mxGeometry relative="1" as="geometry" />
        </mxCell>
        <mxCell id="Oqbz7aaS4PAVNcTpMLKT-20" style="edgeStyle=orthogonalEdgeStyle;rounded=0;orthogonalLoop=1;jettySize=auto;html=1;entryX=0;entryY=0.5;entryDx=0;entryDy=0;" edge="1" parent="1" source="Oqbz7aaS4PAVNcTpMLKT-6" target="Oqbz7aaS4PAVNcTpMLKT-8">
          <mxGeometry relative="1" as="geometry" />
        </mxCell>
        <mxCell id="Oqbz7aaS4PAVNcTpMLKT-6" value="Ingin lanjut" style="rhombus;whiteSpace=wrap;html=1;" vertex="1" parent="1">
          <mxGeometry x="-1170" y="1070" width="80" height="80" as="geometry" />
        </mxCell>
        <mxCell id="Oqbz7aaS4PAVNcTpMLKT-7" value="Tampilkan Menu" style="ellipse;whiteSpace=wrap;html=1;aspect=fixed;" vertex="1" parent="1">
          <mxGeometry x="-1170" y="1210" width="80" height="80" as="geometry" />
        </mxCell>
        <mxCell id="Oqbz7aaS4PAVNcTpMLKT-8" value="Program berhenti" style="shape=parallelogram;perimeter=parallelogramPerimeter;whiteSpace=wrap;html=1;fixedSize=1;" vertex="1" parent="1">
          <mxGeometry x="-1030" y="1080" width="120" height="60" as="geometry" />
        </mxCell>
        <mxCell id="Oqbz7aaS4PAVNcTpMLKT-18" value="Yes" style="text;html=1;align=center;verticalAlign=middle;whiteSpace=wrap;rounded=0;" vertex="1" parent="1">
          <mxGeometry x="-1180" y="1160" width="60" height="30" as="geometry" />
        </mxCell>
        <mxCell id="Oqbz7aaS4PAVNcTpMLKT-17" value="No" style="text;html=1;align=center;verticalAlign=middle;whiteSpace=wrap;rounded=0;" vertex="1" parent="1">
          <mxGeometry x="-1090" y="1070" width="60" height="30" as="geometry" />
        </mxCell>
        <mxCell id="Oqbz7aaS4PAVNcTpMLKT-27" style="edgeStyle=orthogonalEdgeStyle;rounded=0;orthogonalLoop=1;jettySize=auto;html=1;entryX=0.5;entryY=0;entryDx=0;entryDy=0;" edge="1" parent="1" source="Oqbz7aaS4PAVNcTpMLKT-21" target="Oqbz7aaS4PAVNcTpMLKT-22">
          <mxGeometry relative="1" as="geometry" />
        </mxCell>
        <mxCell id="Oqbz7aaS4PAVNcTpMLKT-39" style="edgeStyle=orthogonalEdgeStyle;rounded=0;orthogonalLoop=1;jettySize=auto;html=1;entryX=1;entryY=0.5;entryDx=0;entryDy=0;" edge="1" parent="1" source="Oqbz7aaS4PAVNcTpMLKT-21" target="Oqbz7aaS4PAVNcTpMLKT-33">
          <mxGeometry relative="1" as="geometry" />
        </mxCell>
        <mxCell id="Oqbz7aaS4PAVNcTpMLKT-21" value="Menu 2&lt;div&gt;&quot;Lihat Daftar Buku&quot;&lt;/div&gt;" style="rhombus;whiteSpace=wrap;html=1;" vertex="1" parent="1">
          <mxGeometry x="-1560" y="520" width="80" height="80" as="geometry" />
        </mxCell>
        <mxCell id="Oqbz7aaS4PAVNcTpMLKT-28" style="edgeStyle=orthogonalEdgeStyle;rounded=0;orthogonalLoop=1;jettySize=auto;html=1;entryX=0.5;entryY=0;entryDx=0;entryDy=0;" edge="1" parent="1" source="Oqbz7aaS4PAVNcTpMLKT-22" target="Oqbz7aaS4PAVNcTpMLKT-23">
          <mxGeometry relative="1" as="geometry" />
        </mxCell>
        <mxCell id="Oqbz7aaS4PAVNcTpMLKT-22" value="Menampilkan Daftar Buku" style="shape=parallelogram;perimeter=parallelogramPerimeter;whiteSpace=wrap;html=1;fixedSize=1;" vertex="1" parent="1">
          <mxGeometry x="-1580" y="640" width="120" height="60" as="geometry" />
        </mxCell>
        <mxCell id="Oqbz7aaS4PAVNcTpMLKT-29" style="edgeStyle=orthogonalEdgeStyle;rounded=0;orthogonalLoop=1;jettySize=auto;html=1;" edge="1" parent="1" source="Oqbz7aaS4PAVNcTpMLKT-23" target="Oqbz7aaS4PAVNcTpMLKT-25">
          <mxGeometry relative="1" as="geometry" />
        </mxCell>
        <mxCell id="Oqbz7aaS4PAVNcTpMLKT-30" style="edgeStyle=orthogonalEdgeStyle;rounded=0;orthogonalLoop=1;jettySize=auto;html=1;entryX=0;entryY=0.5;entryDx=0;entryDy=0;" edge="1" parent="1" source="Oqbz7aaS4PAVNcTpMLKT-23" target="Oqbz7aaS4PAVNcTpMLKT-24">
          <mxGeometry relative="1" as="geometry" />
        </mxCell>
        <mxCell id="Oqbz7aaS4PAVNcTpMLKT-23" value="Lanjut" style="rhombus;whiteSpace=wrap;html=1;" vertex="1" parent="1">
          <mxGeometry x="-1560" y="740" width="80" height="80" as="geometry" />
        </mxCell>
        <mxCell id="Oqbz7aaS4PAVNcTpMLKT-69" style="edgeStyle=orthogonalEdgeStyle;rounded=0;orthogonalLoop=1;jettySize=auto;html=1;" edge="1" parent="1" source="Oqbz7aaS4PAVNcTpMLKT-24">
          <mxGeometry relative="1" as="geometry">
            <mxPoint x="-1360" y="1400" as="targetPoint" />
          </mxGeometry>
        </mxCell>
        <mxCell id="Oqbz7aaS4PAVNcTpMLKT-24" value="Program Berhenti" style="shape=parallelogram;perimeter=parallelogramPerimeter;whiteSpace=wrap;html=1;fixedSize=1;" vertex="1" parent="1">
          <mxGeometry x="-1420" y="750" width="120" height="60" as="geometry" />
        </mxCell>
        <mxCell id="Oqbz7aaS4PAVNcTpMLKT-25" value="Tampilkan Menu" style="ellipse;whiteSpace=wrap;html=1;aspect=fixed;" vertex="1" parent="1">
          <mxGeometry x="-1560" y="860" width="80" height="80" as="geometry" />
        </mxCell>
        <mxCell id="Oqbz7aaS4PAVNcTpMLKT-31" value="No" style="text;html=1;align=center;verticalAlign=middle;whiteSpace=wrap;rounded=0;" vertex="1" parent="1">
          <mxGeometry x="-1480" y="750" width="60" height="30" as="geometry" />
        </mxCell>
        <mxCell id="Oqbz7aaS4PAVNcTpMLKT-32" value="Yes" style="text;html=1;align=center;verticalAlign=middle;whiteSpace=wrap;rounded=0;" vertex="1" parent="1">
          <mxGeometry x="-1580" y="820" width="60" height="30" as="geometry" />
        </mxCell>
        <mxCell id="Oqbz7aaS4PAVNcTpMLKT-40" style="edgeStyle=orthogonalEdgeStyle;rounded=0;orthogonalLoop=1;jettySize=auto;html=1;entryX=0.5;entryY=0;entryDx=0;entryDy=0;" edge="1" parent="1" source="Oqbz7aaS4PAVNcTpMLKT-33" target="Oqbz7aaS4PAVNcTpMLKT-34">
          <mxGeometry relative="1" as="geometry" />
        </mxCell>
        <mxCell id="Oqbz7aaS4PAVNcTpMLKT-53" style="edgeStyle=orthogonalEdgeStyle;rounded=0;orthogonalLoop=1;jettySize=auto;html=1;entryX=1;entryY=0.5;entryDx=0;entryDy=0;" edge="1" parent="1" source="Oqbz7aaS4PAVNcTpMLKT-33" target="Oqbz7aaS4PAVNcTpMLKT-47">
          <mxGeometry relative="1" as="geometry" />
        </mxCell>
        <mxCell id="Oqbz7aaS4PAVNcTpMLKT-33" value="Menu 3&lt;div&gt;&quot;Update Judul dan Stok Buku&quot;&lt;/div&gt;" style="rhombus;whiteSpace=wrap;html=1;" vertex="1" parent="1">
          <mxGeometry x="-1890" y="520" width="80" height="80" as="geometry" />
        </mxCell>
        <mxCell id="Oqbz7aaS4PAVNcTpMLKT-41" style="edgeStyle=orthogonalEdgeStyle;rounded=0;orthogonalLoop=1;jettySize=auto;html=1;entryX=0.5;entryY=0;entryDx=0;entryDy=0;" edge="1" parent="1" source="Oqbz7aaS4PAVNcTpMLKT-34" target="Oqbz7aaS4PAVNcTpMLKT-35">
          <mxGeometry relative="1" as="geometry" />
        </mxCell>
        <mxCell id="Oqbz7aaS4PAVNcTpMLKT-34" value="Memilih judul dan stok yang ingin di update" style="shape=parallelogram;perimeter=parallelogramPerimeter;whiteSpace=wrap;html=1;fixedSize=1;" vertex="1" parent="1">
          <mxGeometry x="-1910" y="640" width="120" height="60" as="geometry" />
        </mxCell>
        <mxCell id="Oqbz7aaS4PAVNcTpMLKT-42" style="edgeStyle=orthogonalEdgeStyle;rounded=0;orthogonalLoop=1;jettySize=auto;html=1;entryX=0.5;entryY=0;entryDx=0;entryDy=0;" edge="1" parent="1" source="Oqbz7aaS4PAVNcTpMLKT-35" target="Oqbz7aaS4PAVNcTpMLKT-36">
          <mxGeometry relative="1" as="geometry" />
        </mxCell>
        <mxCell id="Oqbz7aaS4PAVNcTpMLKT-35" value="Merubah Judul dan Stok" style="shape=parallelogram;perimeter=parallelogramPerimeter;whiteSpace=wrap;html=1;fixedSize=1;" vertex="1" parent="1">
          <mxGeometry x="-1910" y="735" width="120" height="60" as="geometry" />
        </mxCell>
        <mxCell id="Oqbz7aaS4PAVNcTpMLKT-43" style="edgeStyle=orthogonalEdgeStyle;rounded=0;orthogonalLoop=1;jettySize=auto;html=1;entryX=0;entryY=0.5;entryDx=0;entryDy=0;" edge="1" parent="1" source="Oqbz7aaS4PAVNcTpMLKT-36" target="Oqbz7aaS4PAVNcTpMLKT-37">
          <mxGeometry relative="1" as="geometry" />
        </mxCell>
        <mxCell id="Oqbz7aaS4PAVNcTpMLKT-44" style="edgeStyle=orthogonalEdgeStyle;rounded=0;orthogonalLoop=1;jettySize=auto;html=1;entryX=0.5;entryY=0;entryDx=0;entryDy=0;" edge="1" parent="1" source="Oqbz7aaS4PAVNcTpMLKT-36" target="Oqbz7aaS4PAVNcTpMLKT-38">
          <mxGeometry relative="1" as="geometry" />
        </mxCell>
        <mxCell id="Oqbz7aaS4PAVNcTpMLKT-36" value="Lanjut" style="rhombus;whiteSpace=wrap;html=1;" vertex="1" parent="1">
          <mxGeometry x="-1890" y="830" width="80" height="80" as="geometry" />
        </mxCell>
        <mxCell id="Oqbz7aaS4PAVNcTpMLKT-70" style="edgeStyle=orthogonalEdgeStyle;rounded=0;orthogonalLoop=1;jettySize=auto;html=1;" edge="1" parent="1" source="Oqbz7aaS4PAVNcTpMLKT-37">
          <mxGeometry relative="1" as="geometry">
            <mxPoint x="-1690" y="1400" as="targetPoint" />
          </mxGeometry>
        </mxCell>
        <mxCell id="Oqbz7aaS4PAVNcTpMLKT-37" value="Program Berhenti" style="shape=parallelogram;perimeter=parallelogramPerimeter;whiteSpace=wrap;html=1;fixedSize=1;" vertex="1" parent="1">
          <mxGeometry x="-1750" y="840" width="120" height="60" as="geometry" />
        </mxCell>
        <mxCell id="Oqbz7aaS4PAVNcTpMLKT-38" value="Tampilakan Menu" style="ellipse;whiteSpace=wrap;html=1;aspect=fixed;" vertex="1" parent="1">
          <mxGeometry x="-1890" y="950" width="80" height="80" as="geometry" />
        </mxCell>
        <mxCell id="Oqbz7aaS4PAVNcTpMLKT-45" value="No" style="text;html=1;align=center;verticalAlign=middle;whiteSpace=wrap;rounded=0;" vertex="1" parent="1">
          <mxGeometry x="-1810" y="840" width="60" height="30" as="geometry" />
        </mxCell>
        <mxCell id="Oqbz7aaS4PAVNcTpMLKT-46" value="Yes" style="text;html=1;align=center;verticalAlign=middle;whiteSpace=wrap;rounded=0;" vertex="1" parent="1">
          <mxGeometry x="-1910" y="910" width="60" height="30" as="geometry" />
        </mxCell>
        <mxCell id="Oqbz7aaS4PAVNcTpMLKT-54" style="edgeStyle=orthogonalEdgeStyle;rounded=0;orthogonalLoop=1;jettySize=auto;html=1;entryX=0.5;entryY=0;entryDx=0;entryDy=0;" edge="1" parent="1" source="Oqbz7aaS4PAVNcTpMLKT-47" target="Oqbz7aaS4PAVNcTpMLKT-48">
          <mxGeometry relative="1" as="geometry" />
        </mxCell>
        <mxCell id="Oqbz7aaS4PAVNcTpMLKT-64" style="edgeStyle=orthogonalEdgeStyle;rounded=0;orthogonalLoop=1;jettySize=auto;html=1;entryX=1;entryY=0.5;entryDx=0;entryDy=0;" edge="1" parent="1" source="Oqbz7aaS4PAVNcTpMLKT-47" target="Oqbz7aaS4PAVNcTpMLKT-62">
          <mxGeometry relative="1" as="geometry" />
        </mxCell>
        <mxCell id="Oqbz7aaS4PAVNcTpMLKT-47" value="Menu 4&lt;div&gt;&quot;Kembalikan Buku&quot;&lt;/div&gt;" style="rhombus;whiteSpace=wrap;html=1;" vertex="1" parent="1">
          <mxGeometry x="-2290" y="520" width="80" height="80" as="geometry" />
        </mxCell>
        <mxCell id="Oqbz7aaS4PAVNcTpMLKT-55" style="edgeStyle=orthogonalEdgeStyle;rounded=0;orthogonalLoop=1;jettySize=auto;html=1;entryX=0.5;entryY=0;entryDx=0;entryDy=0;" edge="1" parent="1" source="Oqbz7aaS4PAVNcTpMLKT-48" target="Oqbz7aaS4PAVNcTpMLKT-49">
          <mxGeometry relative="1" as="geometry" />
        </mxCell>
        <mxCell id="Oqbz7aaS4PAVNcTpMLKT-48" value="Memilih Buku yang ingin Dikembalikan" style="shape=parallelogram;perimeter=parallelogramPerimeter;whiteSpace=wrap;html=1;fixedSize=1;" vertex="1" parent="1">
          <mxGeometry x="-2310" y="640" width="120" height="60" as="geometry" />
        </mxCell>
        <mxCell id="Oqbz7aaS4PAVNcTpMLKT-56" style="edgeStyle=orthogonalEdgeStyle;rounded=0;orthogonalLoop=1;jettySize=auto;html=1;entryX=0.5;entryY=0;entryDx=0;entryDy=0;" edge="1" parent="1" source="Oqbz7aaS4PAVNcTpMLKT-49" target="Oqbz7aaS4PAVNcTpMLKT-50">
          <mxGeometry relative="1" as="geometry" />
        </mxCell>
        <mxCell id="Oqbz7aaS4PAVNcTpMLKT-49" value="&quot;Buku Berhasil Dikembalikan&quot;" style="shape=parallelogram;perimeter=parallelogramPerimeter;whiteSpace=wrap;html=1;fixedSize=1;" vertex="1" parent="1">
          <mxGeometry x="-2310" y="760" width="120" height="60" as="geometry" />
        </mxCell>
        <mxCell id="Oqbz7aaS4PAVNcTpMLKT-58" style="edgeStyle=orthogonalEdgeStyle;rounded=0;orthogonalLoop=1;jettySize=auto;html=1;entryX=0;entryY=0.5;entryDx=0;entryDy=0;" edge="1" parent="1" source="Oqbz7aaS4PAVNcTpMLKT-50" target="Oqbz7aaS4PAVNcTpMLKT-51">
          <mxGeometry relative="1" as="geometry" />
        </mxCell>
        <mxCell id="Oqbz7aaS4PAVNcTpMLKT-59" style="edgeStyle=orthogonalEdgeStyle;rounded=0;orthogonalLoop=1;jettySize=auto;html=1;entryX=0.5;entryY=0;entryDx=0;entryDy=0;" edge="1" parent="1" source="Oqbz7aaS4PAVNcTpMLKT-50" target="Oqbz7aaS4PAVNcTpMLKT-52">
          <mxGeometry relative="1" as="geometry" />
        </mxCell>
        <mxCell id="Oqbz7aaS4PAVNcTpMLKT-50" value="Lanjut" style="rhombus;whiteSpace=wrap;html=1;" vertex="1" parent="1">
          <mxGeometry x="-2290" y="880" width="80" height="80" as="geometry" />
        </mxCell>
        <mxCell id="Oqbz7aaS4PAVNcTpMLKT-74" style="edgeStyle=orthogonalEdgeStyle;rounded=0;orthogonalLoop=1;jettySize=auto;html=1;" edge="1" parent="1" source="Oqbz7aaS4PAVNcTpMLKT-51">
          <mxGeometry relative="1" as="geometry">
            <mxPoint x="-2100" y="1400" as="targetPoint" />
          </mxGeometry>
        </mxCell>
        <mxCell id="Oqbz7aaS4PAVNcTpMLKT-51" value="Program Berhenti" style="shape=parallelogram;perimeter=parallelogramPerimeter;whiteSpace=wrap;html=1;fixedSize=1;" vertex="1" parent="1">
          <mxGeometry x="-2160" y="890" width="120" height="60" as="geometry" />
        </mxCell>
        <mxCell id="Oqbz7aaS4PAVNcTpMLKT-52" value="Tampilkan Menu" style="ellipse;whiteSpace=wrap;html=1;aspect=fixed;" vertex="1" parent="1">
          <mxGeometry x="-2290" y="1000" width="80" height="80" as="geometry" />
        </mxCell>
        <mxCell id="Oqbz7aaS4PAVNcTpMLKT-60" value="Yes" style="text;html=1;align=center;verticalAlign=middle;whiteSpace=wrap;rounded=0;" vertex="1" parent="1">
          <mxGeometry x="-2310" y="960" width="60" height="30" as="geometry" />
        </mxCell>
        <mxCell id="Oqbz7aaS4PAVNcTpMLKT-61" value="No" style="text;html=1;align=center;verticalAlign=middle;whiteSpace=wrap;rounded=0;" vertex="1" parent="1">
          <mxGeometry x="-2210" y="885" width="60" height="30" as="geometry" />
        </mxCell>
        <mxCell id="Oqbz7aaS4PAVNcTpMLKT-65" style="edgeStyle=orthogonalEdgeStyle;rounded=0;orthogonalLoop=1;jettySize=auto;html=1;" edge="1" parent="1" source="Oqbz7aaS4PAVNcTpMLKT-62" target="Oqbz7aaS4PAVNcTpMLKT-63">
          <mxGeometry relative="1" as="geometry" />
        </mxCell>
        <mxCell id="Oqbz7aaS4PAVNcTpMLKT-62" value="Menu 5&lt;div&gt;&quot;Keluar&lt;/div&gt;" style="rhombus;whiteSpace=wrap;html=1;" vertex="1" parent="1">
          <mxGeometry x="-2680" y="520" width="80" height="80" as="geometry" />
        </mxCell>
        <mxCell id="Oqbz7aaS4PAVNcTpMLKT-63" value="Keluar dari program" style="shape=parallelogram;perimeter=parallelogramPerimeter;whiteSpace=wrap;html=1;fixedSize=1;" vertex="1" parent="1">
          <mxGeometry x="-2700" y="640" width="120" height="60" as="geometry" />
        </mxCell>
        <mxCell id="Oqbz7aaS4PAVNcTpMLKT-66" value="End" style="ellipse;whiteSpace=wrap;html=1;" vertex="1" parent="1">
          <mxGeometry x="-1910" y="1360" width="120" height="80" as="geometry" />
        </mxCell>
        <mxCell id="Oqbz7aaS4PAVNcTpMLKT-67" value="" style="endArrow=none;html=1;rounded=0;" edge="1" parent="1">
          <mxGeometry width="50" height="50" relative="1" as="geometry">
            <mxPoint x="-980" y="1400" as="sourcePoint" />
            <mxPoint x="-980" y="1140" as="targetPoint" />
          </mxGeometry>
        </mxCell>
        <mxCell id="Oqbz7aaS4PAVNcTpMLKT-68" value="" style="endArrow=classic;html=1;rounded=0;entryX=1;entryY=0.5;entryDx=0;entryDy=0;" edge="1" parent="1" target="Oqbz7aaS4PAVNcTpMLKT-66">
          <mxGeometry width="50" height="50" relative="1" as="geometry">
            <mxPoint x="-980" y="1400" as="sourcePoint" />
            <mxPoint x="-930" y="1350" as="targetPoint" />
          </mxGeometry>
        </mxCell>
        <mxCell id="Oqbz7aaS4PAVNcTpMLKT-72" value="" style="endArrow=none;html=1;rounded=0;" edge="1" parent="1">
          <mxGeometry width="50" height="50" relative="1" as="geometry">
            <mxPoint x="-2640" y="1400" as="sourcePoint" />
            <mxPoint x="-2640" y="700" as="targetPoint" />
          </mxGeometry>
        </mxCell>
        <mxCell id="Oqbz7aaS4PAVNcTpMLKT-73" value="" style="endArrow=classic;html=1;rounded=0;entryX=0;entryY=0.5;entryDx=0;entryDy=0;" edge="1" parent="1" target="Oqbz7aaS4PAVNcTpMLKT-66">
          <mxGeometry width="50" height="50" relative="1" as="geometry">
            <mxPoint x="-2640" y="1400" as="sourcePoint" />
            <mxPoint x="-2590" y="1350" as="targetPoint" />
          </mxGeometry>
        </mxCell>
      </root>
    </mxGraphModel>
  </diagram>
</mxfile>
